<svg xmlns="http://www.w3.org/2000/svg" width="737" height="642" viewBox="0 0 737 642" fill="none">
  <g clip-path="url(#clip0_834_3731)">
  <path d="M6.6 636.638C6.6 637.39 6.518 638.042 6.354 638.594C6.194 639.142 5.974 639.596 5.694 639.956C5.414 640.316 5.082 640.584 4.698 640.76C4.318 640.936 3.91 641.024 3.474 641.024C3.034 641.024 2.624 640.936 2.244 640.76C1.868 640.584 1.54 640.316 1.26 639.956C0.98 639.596 0.76 639.142 0.6 638.594C0.44 638.042 0.36 637.39 0.36 636.638C0.36 635.886 0.44 635.234 0.6 634.682C0.76 634.13 0.98 633.674 1.26 633.314C1.54 632.95 1.868 632.68 2.244 632.504C2.624 632.328 3.034 632.24 3.474 632.24C3.91 632.24 4.318 632.328 4.698 632.504C5.082 632.68 5.414 632.95 5.694 633.314C5.974 633.674 6.194 634.13 6.354 634.682C6.518 635.234 6.6 635.886 6.6 636.638ZM5.49 636.638C5.49 635.982 5.434 635.432 5.322 634.988C5.214 634.54 5.066 634.18 4.878 633.908C4.694 633.636 4.48 633.442 4.236 633.326C3.992 633.206 3.738 633.146 3.474 633.146C3.21 633.146 2.956 633.206 2.712 633.326C2.468 633.442 2.254 633.636 2.07 633.908C1.886 634.18 1.738 634.54 1.626 634.988C1.518 635.432 1.464 635.982 1.464 636.638C1.464 637.294 1.518 637.844 1.626 638.288C1.738 638.732 1.886 639.09 2.07 639.362C2.254 639.634 2.468 639.83 2.712 639.95C2.956 640.066 3.21 640.124 3.474 640.124C3.738 640.124 3.992 640.066 4.236 639.95C4.48 639.83 4.694 639.634 4.878 639.362C5.066 639.09 5.214 638.732 5.322 638.288C5.434 637.844 5.49 637.294 5.49 636.638ZM7.62694 640.274C7.62694 640.17 7.64494 640.072 7.68094 639.98C7.72094 639.888 7.77294 639.808 7.83694 639.74C7.90494 639.672 7.98494 639.618 8.07694 639.578C8.16894 639.538 8.26694 639.518 8.37094 639.518C8.47494 639.518 8.57294 639.538 8.66494 639.578C8.75694 639.618 8.83694 639.672 8.90494 639.74C8.97294 639.808 9.02694 639.888 9.06694 639.98C9.10694 640.072 9.12694 640.17 9.12694 640.274C9.12694 640.382 9.10694 640.482 9.06694 640.574C9.02694 640.662 8.97294 640.74 8.90494 640.808C8.83694 640.876 8.75694 640.928 8.66494 640.964C8.57294 641.004 8.47494 641.024 8.37094 641.024C8.26694 641.024 8.16894 641.004 8.07694 640.964C7.98494 640.928 7.90494 640.876 7.83694 640.808C7.77294 640.74 7.72094 640.662 7.68094 640.574C7.64494 640.482 7.62694 640.382 7.62694 640.274ZM16.3969 636.638C16.3969 637.39 16.3149 638.042 16.1509 638.594C15.9909 639.142 15.7709 639.596 15.4909 639.956C15.2109 640.316 14.8789 640.584 14.4949 640.76C14.1149 640.936 13.7069 641.024 13.2709 641.024C12.8309 641.024 12.4209 640.936 12.0409 640.76C11.6649 640.584 11.3369 640.316 11.0569 639.956C10.7769 639.596 10.5569 639.142 10.3969 638.594C10.2369 638.042 10.1569 637.39 10.1569 636.638C10.1569 635.886 10.2369 635.234 10.3969 634.682C10.5569 634.13 10.7769 633.674 11.0569 633.314C11.3369 632.95 11.6649 632.68 12.0409 632.504C12.4209 632.328 12.8309 632.24 13.2709 632.24C13.7069 632.24 14.1149 632.328 14.4949 632.504C14.8789 632.68 15.2109 632.95 15.4909 633.314C15.7709 633.674 15.9909 634.13 16.1509 634.682C16.3149 635.234 16.3969 635.886 16.3969 636.638ZM15.2869 636.638C15.2869 635.982 15.2309 635.432 15.1189 634.988C15.0109 634.54 14.8629 634.18 14.6749 633.908C14.4909 633.636 14.2769 633.442 14.0329 633.326C13.7889 633.206 13.5349 633.146 13.2709 633.146C13.0069 633.146 12.7529 633.206 12.5089 633.326C12.2649 633.442 12.0509 633.636 11.8669 633.908C11.6829 634.18 11.5349 634.54 11.4229 634.988C11.3149 635.432 11.2609 635.982 11.2609 636.638C11.2609 637.294 11.3149 637.844 11.4229 638.288C11.5349 638.732 11.6829 639.09 11.8669 639.362C12.0509 639.634 12.2649 639.83 12.5089 639.95C12.7529 640.066 13.0069 640.124 13.2709 640.124C13.5349 640.124 13.7889 640.066 14.0329 639.95C14.2769 639.83 14.4909 639.634 14.6749 639.362C14.8629 639.09 15.0109 638.732 15.1189 638.288C15.2309 637.844 15.2869 637.294 15.2869 636.638ZM4.332 648.412C4.332 648.748 4.28 649.05 4.176 649.318C4.072 649.582 3.932 649.806 3.756 649.99C3.584 650.17 3.382 650.308 3.15 650.404C2.922 650.5 2.68 650.548 2.424 650.548C2.156 650.548 1.906 650.5 1.674 650.404C1.442 650.308 1.24 650.17 1.068 649.99C0.9 649.806 0.768 649.582 0.672 649.318C0.576 649.05 0.528 648.748 0.528 648.412C0.528 648.068 0.576 647.762 0.672 647.494C0.768 647.226 0.9 647 1.068 646.816C1.24 646.632 1.442 646.492 1.674 646.396C1.906 646.3 2.156 646.252 2.424 646.252C2.696 646.252 2.948 646.3 3.18 646.396C3.412 646.492 3.614 646.632 3.786 646.816C3.958 647 4.092 647.226 4.188 647.494C4.284 647.762 4.332 648.068 4.332 648.412ZM3.504 648.412C3.504 648.148 3.476 647.924 3.42 647.74C3.364 647.556 3.286 647.406 3.186 647.29C3.09 647.17 2.976 647.084 2.844 647.032C2.712 646.98 2.572 646.954 2.424 646.954C2.276 646.954 2.138 646.98 2.01 647.032C1.882 647.084 1.77 647.17 1.674 647.29C1.578 647.406 1.502 647.556 1.446 647.74C1.39 647.924 1.362 648.148 1.362 648.412C1.362 648.672 1.39 648.894 1.446 649.078C1.502 649.258 1.578 649.406 1.674 649.522C1.77 649.634 1.882 649.716 2.01 649.768C2.138 649.816 2.276 649.84 2.424 649.84C2.572 649.84 2.712 649.816 2.844 649.768C2.976 649.716 3.09 649.634 3.186 649.522C3.286 649.406 3.364 649.258 3.42 649.078C3.476 648.894 3.504 648.672 3.504 648.412ZM7.374 646.516C7.414 646.468 7.46 646.426 7.512 646.39C7.568 646.354 7.642 646.336 7.734 646.336H8.508L2.22 654.76C2.184 654.812 2.138 654.854 2.082 654.886C2.026 654.918 1.958 654.934 1.878 654.934H1.092L7.374 646.516ZM9.09 652.906C9.09 653.242 9.038 653.542 8.934 653.806C8.83 654.07 8.69 654.294 8.514 654.478C8.342 654.658 8.14 654.796 7.908 654.892C7.68 654.988 7.438 655.036 7.182 655.036C6.91 655.036 6.658 654.988 6.426 654.892C6.198 654.796 5.998 654.658 5.826 654.478C5.658 654.294 5.526 654.07 5.43 653.806C5.334 653.542 5.286 653.242 5.286 652.906C5.286 652.562 5.334 652.256 5.43 651.988C5.526 651.716 5.658 651.488 5.826 651.304C5.998 651.12 6.198 650.98 6.426 650.884C6.658 650.788 6.91 650.74 7.182 650.74C7.45 650.74 7.7 650.788 7.932 650.884C8.168 650.98 8.37 651.12 8.538 651.304C8.71 651.488 8.844 651.716 8.94 651.988C9.04 652.256 9.09 652.562 9.09 652.906ZM8.262 652.906C8.262 652.642 8.234 652.418 8.178 652.234C8.122 652.046 8.044 651.894 7.944 651.778C7.848 651.662 7.734 651.578 7.602 651.526C7.47 651.474 7.33 651.448 7.182 651.448C7.034 651.448 6.894 651.474 6.762 651.526C6.634 651.578 6.522 651.662 6.426 651.778C6.33 651.894 6.254 652.046 6.198 652.234C6.146 652.418 6.12 652.642 6.12 652.906C6.12 653.166 6.146 653.386 6.198 653.566C6.254 653.746 6.33 653.894 6.426 654.01C6.522 654.122 6.634 654.204 6.762 654.256C6.894 654.304 7.034 654.328 7.182 654.328C7.33 654.328 7.47 654.304 7.602 654.256C7.734 654.204 7.848 654.122 7.944 654.01C8.044 653.894 8.122 653.746 8.178 653.566C8.234 653.386 8.262 653.166 8.262 652.906Z" fill="black"/>
  <path d="M240.251 640.118V640.934H235.643V640.118H237.485V634.256C237.485 634.08 237.491 633.902 237.503 633.722L235.973 635.036C235.921 635.08 235.869 635.108 235.817 635.12C235.765 635.128 235.717 635.128 235.673 635.12C235.629 635.112 235.587 635.096 235.547 635.072C235.511 635.048 235.483 635.022 235.463 634.994L235.127 634.532L237.689 632.318H238.559V640.118H240.251ZM247.704 636.638C247.704 637.39 247.622 638.042 247.458 638.594C247.298 639.142 247.078 639.596 246.798 639.956C246.518 640.316 246.186 640.584 245.802 640.76C245.422 640.936 245.014 641.024 244.578 641.024C244.138 641.024 243.728 640.936 243.348 640.76C242.972 640.584 242.644 640.316 242.364 639.956C242.084 639.596 241.864 639.142 241.704 638.594C241.544 638.042 241.464 637.39 241.464 636.638C241.464 635.886 241.544 635.234 241.704 634.682C241.864 634.13 242.084 633.674 242.364 633.314C242.644 632.95 242.972 632.68 243.348 632.504C243.728 632.328 244.138 632.24 244.578 632.24C245.014 632.24 245.422 632.328 245.802 632.504C246.186 632.68 246.518 632.95 246.798 633.314C247.078 633.674 247.298 634.13 247.458 634.682C247.622 635.234 247.704 635.886 247.704 636.638ZM246.594 636.638C246.594 635.982 246.538 635.432 246.426 634.988C246.318 634.54 246.17 634.18 245.982 633.908C245.798 633.636 245.584 633.442 245.34 633.326C245.096 633.206 244.842 633.146 244.578 633.146C244.314 633.146 244.06 633.206 243.816 633.326C243.572 633.442 243.358 633.636 243.174 633.908C242.99 634.18 242.842 634.54 242.73 634.988C242.622 635.432 242.568 635.982 242.568 636.638C242.568 637.294 242.622 637.844 242.73 638.288C242.842 638.732 242.99 639.09 243.174 639.362C243.358 639.634 243.572 639.83 243.816 639.95C244.06 640.066 244.314 640.124 244.578 640.124C244.842 640.124 245.096 640.066 245.34 639.95C245.584 639.83 245.798 639.634 245.982 639.362C246.17 639.09 246.318 638.732 246.426 638.288C246.538 637.844 246.594 637.294 246.594 636.638ZM248.731 640.274C248.731 640.17 248.749 640.072 248.785 639.98C248.825 639.888 248.877 639.808 248.941 639.74C249.009 639.672 249.089 639.618 249.181 639.578C249.273 639.538 249.371 639.518 249.475 639.518C249.579 639.518 249.677 639.538 249.769 639.578C249.861 639.618 249.941 639.672 250.009 639.74C250.077 639.808 250.131 639.888 250.171 639.98C250.211 640.072 250.231 640.17 250.231 640.274C250.231 640.382 250.211 640.482 250.171 640.574C250.131 640.662 250.077 640.74 250.009 640.808C249.941 640.876 249.861 640.928 249.769 640.964C249.677 641.004 249.579 641.024 249.475 641.024C249.371 641.024 249.273 641.004 249.181 640.964C249.089 640.928 249.009 640.876 248.941 640.808C248.877 640.74 248.825 640.662 248.785 640.574C248.749 640.482 248.731 640.382 248.731 640.274ZM257.501 636.638C257.501 637.39 257.419 638.042 257.255 638.594C257.095 639.142 256.875 639.596 256.595 639.956C256.315 640.316 255.983 640.584 255.599 640.76C255.219 640.936 254.811 641.024 254.375 641.024C253.935 641.024 253.525 640.936 253.145 640.76C252.769 640.584 252.441 640.316 252.161 639.956C251.881 639.596 251.661 639.142 251.501 638.594C251.341 638.042 251.261 637.39 251.261 636.638C251.261 635.886 251.341 635.234 251.501 634.682C251.661 634.13 251.881 633.674 252.161 633.314C252.441 632.95 252.769 632.68 253.145 632.504C253.525 632.328 253.935 632.24 254.375 632.24C254.811 632.24 255.219 632.328 255.599 632.504C255.983 632.68 256.315 632.95 256.595 633.314C256.875 633.674 257.095 634.13 257.255 634.682C257.419 635.234 257.501 635.886 257.501 636.638ZM256.391 636.638C256.391 635.982 256.335 635.432 256.223 634.988C256.115 634.54 255.967 634.18 255.779 633.908C255.595 633.636 255.381 633.442 255.137 633.326C254.893 633.206 254.639 633.146 254.375 633.146C254.111 633.146 253.857 633.206 253.613 633.326C253.369 633.442 253.155 633.636 252.971 633.908C252.787 634.18 252.639 634.54 252.527 634.988C252.419 635.432 252.365 635.982 252.365 636.638C252.365 637.294 252.419 637.844 252.527 638.288C252.639 638.732 252.787 639.09 252.971 639.362C253.155 639.634 253.369 639.83 253.613 639.95C253.857 640.066 254.111 640.124 254.375 640.124C254.639 640.124 254.893 640.066 255.137 639.95C255.381 639.83 255.595 639.634 255.779 639.362C255.967 639.09 256.115 638.732 256.223 638.288C256.335 637.844 256.391 637.294 256.391 636.638ZM238.475 648.412C238.475 648.748 238.423 649.05 238.319 649.318C238.215 649.582 238.075 649.806 237.899 649.99C237.727 650.17 237.525 650.308 237.293 650.404C237.065 650.5 236.823 650.548 236.567 650.548C236.299 650.548 236.049 650.5 235.817 650.404C235.585 650.308 235.383 650.17 235.211 649.99C235.043 649.806 234.911 649.582 234.815 649.318C234.719 649.05 234.671 648.748 234.671 648.412C234.671 648.068 234.719 647.762 234.815 647.494C234.911 647.226 235.043 647 235.211 646.816C235.383 646.632 235.585 646.492 235.817 646.396C236.049 646.3 236.299 646.252 236.567 646.252C236.839 646.252 237.091 646.3 237.323 646.396C237.555 646.492 237.757 646.632 237.929 646.816C238.101 647 238.235 647.226 238.331 647.494C238.427 647.762 238.475 648.068 238.475 648.412ZM237.647 648.412C237.647 648.148 237.619 647.924 237.563 647.74C237.507 647.556 237.429 647.406 237.329 647.29C237.233 647.17 237.119 647.084 236.987 647.032C236.855 646.98 236.715 646.954 236.567 646.954C236.419 646.954 236.281 646.98 236.153 647.032C236.025 647.084 235.913 647.17 235.817 647.29C235.721 647.406 235.645 647.556 235.589 647.74C235.533 647.924 235.505 648.148 235.505 648.412C235.505 648.672 235.533 648.894 235.589 649.078C235.645 649.258 235.721 649.406 235.817 649.522C235.913 649.634 236.025 649.716 236.153 649.768C236.281 649.816 236.419 649.84 236.567 649.84C236.715 649.84 236.855 649.816 236.987 649.768C237.119 649.716 237.233 649.634 237.329 649.522C237.429 649.406 237.507 649.258 237.563 649.078C237.619 648.894 237.647 648.672 237.647 648.412ZM241.517 646.516C241.557 646.468 241.603 646.426 241.655 646.39C241.711 646.354 241.785 646.336 241.877 646.336H242.651L236.363 654.76C236.327 654.812 236.281 654.854 236.225 654.886C236.169 654.918 236.101 654.934 236.021 654.934H235.235L241.517 646.516ZM243.233 652.906C243.233 653.242 243.181 653.542 243.077 653.806C242.973 654.07 242.833 654.294 242.657 654.478C242.485 654.658 242.283 654.796 242.051 654.892C241.823 654.988 241.581 655.036 241.325 655.036C241.053 655.036 240.801 654.988 240.569 654.892C240.341 654.796 240.141 654.658 239.969 654.478C239.801 654.294 239.669 654.07 239.573 653.806C239.477 653.542 239.429 653.242 239.429 652.906C239.429 652.562 239.477 652.256 239.573 651.988C239.669 651.716 239.801 651.488 239.969 651.304C240.141 651.12 240.341 650.98 240.569 650.884C240.801 650.788 241.053 650.74 241.325 650.74C241.593 650.74 241.843 650.788 242.075 650.884C242.311 650.98 242.513 651.12 242.681 651.304C242.853 651.488 242.987 651.716 243.083 651.988C243.183 652.256 243.233 652.562 243.233 652.906ZM242.405 652.906C242.405 652.642 242.377 652.418 242.321 652.234C242.265 652.046 242.187 651.894 242.087 651.778C241.991 651.662 241.877 651.578 241.745 651.526C241.613 651.474 241.473 651.448 241.325 651.448C241.177 651.448 241.037 651.474 240.905 651.526C240.777 651.578 240.665 651.662 240.569 651.778C240.473 651.894 240.397 652.046 240.341 652.234C240.289 652.418 240.263 652.642 240.263 652.906C240.263 653.166 240.289 653.386 240.341 653.566C240.397 653.746 240.473 653.894 240.569 654.01C240.665 654.122 240.777 654.204 240.905 654.256C241.037 654.304 241.177 654.328 241.325 654.328C241.473 654.328 241.613 654.304 241.745 654.256C241.877 654.204 241.991 654.122 242.087 654.01C242.187 653.894 242.265 653.746 242.321 653.566C242.377 653.386 242.405 653.166 242.405 652.906Z" fill="black"/>
  <path d="M477.202 639.92C477.318 639.92 477.41 639.954 477.478 640.022C477.546 640.09 477.58 640.178 477.58 640.286V640.934H471.844V640.568C471.844 640.492 471.86 640.414 471.892 640.334C471.924 640.254 471.974 640.18 472.042 640.112L474.796 637.346C475.024 637.114 475.232 636.892 475.42 636.68C475.608 636.464 475.768 636.248 475.9 636.032C476.032 635.816 476.134 635.598 476.206 635.378C476.278 635.154 476.314 634.916 476.314 634.664C476.314 634.412 476.274 634.192 476.194 634.004C476.114 633.812 476.004 633.654 475.864 633.53C475.728 633.406 475.566 633.314 475.378 633.254C475.19 633.19 474.988 633.158 474.772 633.158C474.552 633.158 474.35 633.19 474.166 633.254C473.982 633.318 473.818 633.408 473.674 633.524C473.534 633.636 473.416 633.77 473.32 633.926C473.224 634.082 473.156 634.254 473.116 634.442C473.068 634.582 473.002 634.676 472.918 634.724C472.838 634.768 472.724 634.78 472.576 634.76L472.018 634.664C472.074 634.272 472.182 633.926 472.342 633.626C472.506 633.322 472.71 633.068 472.954 632.864C473.202 632.66 473.484 632.506 473.8 632.402C474.116 632.294 474.458 632.24 474.826 632.24C475.19 632.24 475.53 632.294 475.846 632.402C476.162 632.51 476.436 632.668 476.668 632.876C476.9 633.08 477.082 633.33 477.214 633.626C477.346 633.922 477.412 634.258 477.412 634.634C477.412 634.954 477.364 635.252 477.268 635.528C477.172 635.8 477.042 636.06 476.878 636.308C476.714 636.556 476.524 636.798 476.308 637.034C476.096 637.27 475.87 637.508 475.63 637.748L473.362 640.064C473.522 640.02 473.684 639.986 473.848 639.962C474.012 639.934 474.17 639.92 474.322 639.92H477.202ZM484.841 636.638C484.841 637.39 484.759 638.042 484.595 638.594C484.435 639.142 484.215 639.596 483.935 639.956C483.655 640.316 483.323 640.584 482.939 640.76C482.559 640.936 482.151 641.024 481.715 641.024C481.275 641.024 480.865 640.936 480.485 640.76C480.109 640.584 479.781 640.316 479.501 639.956C479.221 639.596 479.001 639.142 478.841 638.594C478.681 638.042 478.601 637.39 478.601 636.638C478.601 635.886 478.681 635.234 478.841 634.682C479.001 634.13 479.221 633.674 479.501 633.314C479.781 632.95 480.109 632.68 480.485 632.504C480.865 632.328 481.275 632.24 481.715 632.24C482.151 632.24 482.559 632.328 482.939 632.504C483.323 632.68 483.655 632.95 483.935 633.314C484.215 633.674 484.435 634.13 484.595 634.682C484.759 635.234 484.841 635.886 484.841 636.638ZM483.731 636.638C483.731 635.982 483.675 635.432 483.563 634.988C483.455 634.54 483.307 634.18 483.119 633.908C482.935 633.636 482.721 633.442 482.477 633.326C482.233 633.206 481.979 633.146 481.715 633.146C481.451 633.146 481.197 633.206 480.953 633.326C480.709 633.442 480.495 633.636 480.311 633.908C480.127 634.18 479.979 634.54 479.867 634.988C479.759 635.432 479.705 635.982 479.705 636.638C479.705 637.294 479.759 637.844 479.867 638.288C479.979 638.732 480.127 639.09 480.311 639.362C480.495 639.634 480.709 639.83 480.953 639.95C481.197 640.066 481.451 640.124 481.715 640.124C481.979 640.124 482.233 640.066 482.477 639.95C482.721 639.83 482.935 639.634 483.119 639.362C483.307 639.09 483.455 638.732 483.563 638.288C483.675 637.844 483.731 637.294 483.731 636.638ZM485.868 640.274C485.868 640.17 485.886 640.072 485.922 639.98C485.962 639.888 486.014 639.808 486.078 639.74C486.146 639.672 486.226 639.618 486.318 639.578C486.41 639.538 486.508 639.518 486.612 639.518C486.716 639.518 486.814 639.538 486.906 639.578C486.998 639.618 487.078 639.672 487.146 639.74C487.214 639.808 487.268 639.888 487.308 639.98C487.348 640.072 487.368 640.17 487.368 640.274C487.368 640.382 487.348 640.482 487.308 640.574C487.268 640.662 487.214 640.74 487.146 640.808C487.078 640.876 486.998 640.928 486.906 640.964C486.814 641.004 486.716 641.024 486.612 641.024C486.508 641.024 486.41 641.004 486.318 640.964C486.226 640.928 486.146 640.876 486.078 640.808C486.014 640.74 485.962 640.662 485.922 640.574C485.886 640.482 485.868 640.382 485.868 640.274ZM494.638 636.638C494.638 637.39 494.556 638.042 494.392 638.594C494.232 639.142 494.012 639.596 493.732 639.956C493.452 640.316 493.12 640.584 492.736 640.76C492.356 640.936 491.948 641.024 491.512 641.024C491.072 641.024 490.662 640.936 490.282 640.76C489.906 640.584 489.578 640.316 489.298 639.956C489.018 639.596 488.798 639.142 488.638 638.594C488.478 638.042 488.398 637.39 488.398 636.638C488.398 635.886 488.478 635.234 488.638 634.682C488.798 634.13 489.018 633.674 489.298 633.314C489.578 632.95 489.906 632.68 490.282 632.504C490.662 632.328 491.072 632.24 491.512 632.24C491.948 632.24 492.356 632.328 492.736 632.504C493.12 632.68 493.452 632.95 493.732 633.314C494.012 633.674 494.232 634.13 494.392 634.682C494.556 635.234 494.638 635.886 494.638 636.638ZM493.528 636.638C493.528 635.982 493.472 635.432 493.36 634.988C493.252 634.54 493.104 634.18 492.916 633.908C492.732 633.636 492.518 633.442 492.274 633.326C492.03 633.206 491.776 633.146 491.512 633.146C491.248 633.146 490.994 633.206 490.75 633.326C490.506 633.442 490.292 633.636 490.108 633.908C489.924 634.18 489.776 634.54 489.664 634.988C489.556 635.432 489.502 635.982 489.502 636.638C489.502 637.294 489.556 637.844 489.664 638.288C489.776 638.732 489.924 639.09 490.108 639.362C490.292 639.634 490.506 639.83 490.75 639.95C490.994 640.066 491.248 640.124 491.512 640.124C491.776 640.124 492.03 640.066 492.274 639.95C492.518 639.83 492.732 639.634 492.916 639.362C493.104 639.09 493.252 638.732 493.36 638.288C493.472 637.844 493.528 637.294 493.528 636.638ZM475.612 648.412C475.612 648.748 475.56 649.05 475.456 649.318C475.352 649.582 475.212 649.806 475.036 649.99C474.864 650.17 474.662 650.308 474.43 650.404C474.202 650.5 473.96 650.548 473.704 650.548C473.436 650.548 473.186 650.5 472.954 650.404C472.722 650.308 472.52 650.17 472.348 649.99C472.18 649.806 472.048 649.582 471.952 649.318C471.856 649.05 471.808 648.748 471.808 648.412C471.808 648.068 471.856 647.762 471.952 647.494C472.048 647.226 472.18 647 472.348 646.816C472.52 646.632 472.722 646.492 472.954 646.396C473.186 646.3 473.436 646.252 473.704 646.252C473.976 646.252 474.228 646.3 474.46 646.396C474.692 646.492 474.894 646.632 475.066 646.816C475.238 647 475.372 647.226 475.468 647.494C475.564 647.762 475.612 648.068 475.612 648.412ZM474.784 648.412C474.784 648.148 474.756 647.924 474.7 647.74C474.644 647.556 474.566 647.406 474.466 647.29C474.37 647.17 474.256 647.084 474.124 647.032C473.992 646.98 473.852 646.954 473.704 646.954C473.556 646.954 473.418 646.98 473.29 647.032C473.162 647.084 473.05 647.17 472.954 647.29C472.858 647.406 472.782 647.556 472.726 647.74C472.67 647.924 472.642 648.148 472.642 648.412C472.642 648.672 472.67 648.894 472.726 649.078C472.782 649.258 472.858 649.406 472.954 649.522C473.05 649.634 473.162 649.716 473.29 649.768C473.418 649.816 473.556 649.84 473.704 649.84C473.852 649.84 473.992 649.816 474.124 649.768C474.256 649.716 474.37 649.634 474.466 649.522C474.566 649.406 474.644 649.258 474.7 649.078C474.756 648.894 474.784 648.672 474.784 648.412ZM478.654 646.516C478.694 646.468 478.74 646.426 478.792 646.39C478.848 646.354 478.922 646.336 479.014 646.336H479.788L473.5 654.76C473.464 654.812 473.418 654.854 473.362 654.886C473.306 654.918 473.238 654.934 473.158 654.934H472.372L478.654 646.516ZM480.37 652.906C480.37 653.242 480.318 653.542 480.214 653.806C480.11 654.07 479.97 654.294 479.794 654.478C479.622 654.658 479.42 654.796 479.188 654.892C478.96 654.988 478.718 655.036 478.462 655.036C478.19 655.036 477.938 654.988 477.706 654.892C477.478 654.796 477.278 654.658 477.106 654.478C476.938 654.294 476.806 654.07 476.71 653.806C476.614 653.542 476.566 653.242 476.566 652.906C476.566 652.562 476.614 652.256 476.71 651.988C476.806 651.716 476.938 651.488 477.106 651.304C477.278 651.12 477.478 650.98 477.706 650.884C477.938 650.788 478.19 650.74 478.462 650.74C478.73 650.74 478.98 650.788 479.212 650.884C479.448 650.98 479.65 651.12 479.818 651.304C479.99 651.488 480.124 651.716 480.22 651.988C480.32 652.256 480.37 652.562 480.37 652.906ZM479.542 652.906C479.542 652.642 479.514 652.418 479.458 652.234C479.402 652.046 479.324 651.894 479.224 651.778C479.128 651.662 479.014 651.578 478.882 651.526C478.75 651.474 478.61 651.448 478.462 651.448C478.314 651.448 478.174 651.474 478.042 651.526C477.914 651.578 477.802 651.662 477.706 651.778C477.61 651.894 477.534 652.046 477.478 652.234C477.426 652.418 477.4 652.642 477.4 652.906C477.4 653.166 477.426 653.386 477.478 653.566C477.534 653.746 477.61 653.894 477.706 654.01C477.802 654.122 477.914 654.204 478.042 654.256C478.174 654.304 478.314 654.328 478.462 654.328C478.61 654.328 478.75 654.304 478.882 654.256C479.014 654.204 479.128 654.122 479.224 654.01C479.324 653.894 479.402 653.746 479.458 653.566C479.514 653.386 479.542 653.166 479.542 652.906Z" fill="black"/>
  <path d="M709.189 634.664C709.245 634.272 709.353 633.926 709.513 633.626C709.673 633.322 709.875 633.068 710.119 632.864C710.367 632.66 710.649 632.506 710.965 632.402C711.285 632.294 711.629 632.24 711.997 632.24C712.361 632.24 712.697 632.292 713.005 632.396C713.313 632.5 713.577 632.648 713.797 632.84C714.021 633.032 714.195 633.264 714.319 633.536C714.443 633.808 714.505 634.11 714.505 634.442C714.505 634.714 714.469 634.958 714.397 635.174C714.329 635.386 714.229 635.572 714.097 635.732C713.969 635.892 713.813 636.028 713.629 636.14C713.445 636.252 713.239 636.344 713.011 636.416C713.571 636.56 713.991 636.808 714.271 637.16C714.555 637.508 714.697 637.944 714.697 638.468C714.697 638.864 714.621 639.22 714.469 639.536C714.321 639.852 714.117 640.122 713.857 640.346C713.597 640.566 713.293 640.736 712.945 640.856C712.601 640.972 712.231 641.03 711.835 641.03C711.379 641.03 710.989 640.974 710.665 640.862C710.341 640.746 710.067 640.588 709.843 640.388C709.619 640.188 709.435 639.952 709.291 639.68C709.147 639.404 709.025 639.106 708.925 638.786L709.387 638.594C709.507 638.542 709.623 638.528 709.735 638.552C709.851 638.576 709.935 638.642 709.987 638.75C710.039 638.862 710.103 638.996 710.179 639.152C710.259 639.308 710.367 639.458 710.503 639.602C710.639 639.746 710.811 639.868 711.019 639.968C711.231 640.068 711.499 640.118 711.823 640.118C712.123 640.118 712.385 640.07 712.609 639.974C712.837 639.874 713.025 639.746 713.173 639.59C713.325 639.434 713.439 639.26 713.515 639.068C713.591 638.876 713.629 638.686 713.629 638.498C713.629 638.266 713.599 638.054 713.539 637.862C713.479 637.67 713.367 637.504 713.203 637.364C713.039 637.224 712.813 637.114 712.525 637.034C712.241 636.954 711.875 636.914 711.427 636.914V636.14C711.795 636.136 712.107 636.096 712.363 636.02C712.623 635.944 712.833 635.84 712.993 635.708C713.157 635.576 713.275 635.418 713.347 635.234C713.423 635.05 713.461 634.846 713.461 634.622C713.461 634.374 713.421 634.158 713.341 633.974C713.265 633.79 713.159 633.638 713.023 633.518C712.887 633.398 712.725 633.308 712.537 633.248C712.353 633.188 712.153 633.158 711.937 633.158C711.721 633.158 711.519 633.19 711.331 633.254C711.147 633.318 710.983 633.408 710.839 633.524C710.699 633.636 710.581 633.77 710.485 633.926C710.389 634.082 710.321 634.254 710.281 634.442C710.229 634.582 710.163 634.676 710.083 634.724C710.007 634.768 709.895 634.78 709.747 634.76L709.189 634.664ZM721.97 636.638C721.97 637.39 721.888 638.042 721.724 638.594C721.564 639.142 721.344 639.596 721.064 639.956C720.784 640.316 720.452 640.584 720.068 640.76C719.688 640.936 719.28 641.024 718.844 641.024C718.404 641.024 717.994 640.936 717.614 640.76C717.238 640.584 716.91 640.316 716.63 639.956C716.35 639.596 716.13 639.142 715.97 638.594C715.81 638.042 715.73 637.39 715.73 636.638C715.73 635.886 715.81 635.234 715.97 634.682C716.13 634.13 716.35 633.674 716.63 633.314C716.91 632.95 717.238 632.68 717.614 632.504C717.994 632.328 718.404 632.24 718.844 632.24C719.28 632.24 719.688 632.328 720.068 632.504C720.452 632.68 720.784 632.95 721.064 633.314C721.344 633.674 721.564 634.13 721.724 634.682C721.888 635.234 721.97 635.886 721.97 636.638ZM720.86 636.638C720.86 635.982 720.804 635.432 720.692 634.988C720.584 634.54 720.436 634.18 720.248 633.908C720.064 633.636 719.85 633.442 719.606 633.326C719.362 633.206 719.108 633.146 718.844 633.146C718.58 633.146 718.326 633.206 718.082 633.326C717.838 633.442 717.624 633.636 717.44 633.908C717.256 634.18 717.108 634.54 716.996 634.988C716.888 635.432 716.834 635.982 716.834 636.638C716.834 637.294 716.888 637.844 716.996 638.288C717.108 638.732 717.256 639.09 717.44 639.362C717.624 639.634 717.838 639.83 718.082 639.95C718.326 640.066 718.58 640.124 718.844 640.124C719.108 640.124 719.362 640.066 719.606 639.95C719.85 639.83 720.064 639.634 720.248 639.362C720.436 639.09 720.584 638.732 720.692 638.288C720.804 637.844 720.86 637.294 720.86 636.638ZM722.997 640.274C722.997 640.17 723.015 640.072 723.051 639.98C723.091 639.888 723.143 639.808 723.207 639.74C723.275 639.672 723.355 639.618 723.447 639.578C723.539 639.538 723.637 639.518 723.741 639.518C723.845 639.518 723.943 639.538 724.035 639.578C724.127 639.618 724.207 639.672 724.275 639.74C724.343 639.808 724.397 639.888 724.437 639.98C724.477 640.072 724.497 640.17 724.497 640.274C724.497 640.382 724.477 640.482 724.437 640.574C724.397 640.662 724.343 640.74 724.275 640.808C724.207 640.876 724.127 640.928 724.035 640.964C723.943 641.004 723.845 641.024 723.741 641.024C723.637 641.024 723.539 641.004 723.447 640.964C723.355 640.928 723.275 640.876 723.207 640.808C723.143 640.74 723.091 640.662 723.051 640.574C723.015 640.482 722.997 640.382 722.997 640.274ZM731.767 636.638C731.767 637.39 731.685 638.042 731.521 638.594C731.361 639.142 731.141 639.596 730.861 639.956C730.581 640.316 730.249 640.584 729.865 640.76C729.485 640.936 729.077 641.024 728.641 641.024C728.201 641.024 727.791 640.936 727.411 640.76C727.035 640.584 726.707 640.316 726.427 639.956C726.147 639.596 725.927 639.142 725.767 638.594C725.607 638.042 725.527 637.39 725.527 636.638C725.527 635.886 725.607 635.234 725.767 634.682C725.927 634.13 726.147 633.674 726.427 633.314C726.707 632.95 727.035 632.68 727.411 632.504C727.791 632.328 728.201 632.24 728.641 632.24C729.077 632.24 729.485 632.328 729.865 632.504C730.249 632.68 730.581 632.95 730.861 633.314C731.141 633.674 731.361 634.13 731.521 634.682C731.685 635.234 731.767 635.886 731.767 636.638ZM730.657 636.638C730.657 635.982 730.601 635.432 730.489 634.988C730.381 634.54 730.233 634.18 730.045 633.908C729.861 633.636 729.647 633.442 729.403 633.326C729.159 633.206 728.905 633.146 728.641 633.146C728.377 633.146 728.123 633.206 727.879 633.326C727.635 633.442 727.421 633.636 727.237 633.908C727.053 634.18 726.905 634.54 726.793 634.988C726.685 635.432 726.631 635.982 726.631 636.638C726.631 637.294 726.685 637.844 726.793 638.288C726.905 638.732 727.053 639.09 727.237 639.362C727.421 639.634 727.635 639.83 727.879 639.95C728.123 640.066 728.377 640.124 728.641 640.124C728.905 640.124 729.159 640.066 729.403 639.95C729.647 639.83 729.861 639.634 730.045 639.362C730.233 639.09 730.381 638.732 730.489 638.288C730.601 637.844 730.657 637.294 730.657 636.638ZM712.741 648.412C712.741 648.748 712.689 649.05 712.585 649.318C712.481 649.582 712.341 649.806 712.165 649.99C711.993 650.17 711.791 650.308 711.559 650.404C711.331 650.5 711.089 650.548 710.833 650.548C710.565 650.548 710.315 650.5 710.083 650.404C709.851 650.308 709.649 650.17 709.477 649.99C709.309 649.806 709.177 649.582 709.081 649.318C708.985 649.05 708.937 648.748 708.937 648.412C708.937 648.068 708.985 647.762 709.081 647.494C709.177 647.226 709.309 647 709.477 646.816C709.649 646.632 709.851 646.492 710.083 646.396C710.315 646.3 710.565 646.252 710.833 646.252C711.105 646.252 711.357 646.3 711.589 646.396C711.821 646.492 712.023 646.632 712.195 646.816C712.367 647 712.501 647.226 712.597 647.494C712.693 647.762 712.741 648.068 712.741 648.412ZM711.913 648.412C711.913 648.148 711.885 647.924 711.829 647.74C711.773 647.556 711.695 647.406 711.595 647.29C711.499 647.17 711.385 647.084 711.253 647.032C711.121 646.98 710.981 646.954 710.833 646.954C710.685 646.954 710.547 646.98 710.419 647.032C710.291 647.084 710.179 647.17 710.083 647.29C709.987 647.406 709.911 647.556 709.855 647.74C709.799 647.924 709.771 648.148 709.771 648.412C709.771 648.672 709.799 648.894 709.855 649.078C709.911 649.258 709.987 649.406 710.083 649.522C710.179 649.634 710.291 649.716 710.419 649.768C710.547 649.816 710.685 649.84 710.833 649.84C710.981 649.84 711.121 649.816 711.253 649.768C711.385 649.716 711.499 649.634 711.595 649.522C711.695 649.406 711.773 649.258 711.829 649.078C711.885 648.894 711.913 648.672 711.913 648.412ZM715.783 646.516C715.823 646.468 715.869 646.426 715.921 646.39C715.977 646.354 716.051 646.336 716.143 646.336H716.917L710.629 654.76C710.593 654.812 710.547 654.854 710.491 654.886C710.435 654.918 710.367 654.934 710.287 654.934H709.501L715.783 646.516ZM717.499 652.906C717.499 653.242 717.447 653.542 717.343 653.806C717.239 654.07 717.099 654.294 716.923 654.478C716.751 654.658 716.549 654.796 716.317 654.892C716.089 654.988 715.847 655.036 715.591 655.036C715.319 655.036 715.067 654.988 714.835 654.892C714.607 654.796 714.407 654.658 714.235 654.478C714.067 654.294 713.935 654.07 713.839 653.806C713.743 653.542 713.695 653.242 713.695 652.906C713.695 652.562 713.743 652.256 713.839 651.988C713.935 651.716 714.067 651.488 714.235 651.304C714.407 651.12 714.607 650.98 714.835 650.884C715.067 650.788 715.319 650.74 715.591 650.74C715.859 650.74 716.109 650.788 716.341 650.884C716.577 650.98 716.779 651.12 716.947 651.304C717.119 651.488 717.253 651.716 717.349 651.988C717.449 652.256 717.499 652.562 717.499 652.906ZM716.671 652.906C716.671 652.642 716.643 652.418 716.587 652.234C716.531 652.046 716.453 651.894 716.353 651.778C716.257 651.662 716.143 651.578 716.011 651.526C715.879 651.474 715.739 651.448 715.591 651.448C715.443 651.448 715.303 651.474 715.171 651.526C715.043 651.578 714.931 651.662 714.835 651.778C714.739 651.894 714.663 652.046 714.607 652.234C714.555 652.418 714.529 652.642 714.529 652.906C714.529 653.166 714.555 653.386 714.607 653.566C714.663 653.746 714.739 653.894 714.835 654.01C714.931 654.122 715.043 654.204 715.171 654.256C715.303 654.304 715.443 654.328 715.591 654.328C715.739 654.328 715.879 654.304 716.011 654.256C716.143 654.204 716.257 654.122 716.353 654.01C716.453 653.894 716.531 653.746 716.587 653.566C716.643 653.386 716.671 653.166 716.671 652.906Z" fill="black"/>
  <path d="M11.3062 604.76H722.915" stroke="black" stroke-width="0.5" stroke-miterlimit="10"/>
  <path d="M11.3062 604.759V589.642" stroke="black" stroke-width="0.5" stroke-miterlimit="10"/>
  <path opacity="0.3" d="M248.443 604.759V0" stroke="black" stroke-width="0.5" stroke-miterlimit="10"/>
  <path opacity="0.3" d="M485.572 604.759V0.317383" stroke="black" stroke-width="0.5" stroke-miterlimit="10"/>
  <path opacity="0.3" d="M722.7 604.759V0.394531" stroke="black" stroke-width="0.5" stroke-miterlimit="10"/>
  <path d="M82.4455 541.473H11.3062V568.686H82.4455V541.473Z" fill="#C1C1C1"/>
  <path d="M390.713 502.593H11.3062V529.806H390.713V502.593Z" fill="#6697BC"/>
  <path d="M58.7353 463.721H11.3062V490.934H58.7353V463.721Z" fill="#FFD99C"/>
  <path d="M224.724 424.841H11.3062V452.054H224.724V424.841Z" fill="#114C78"/>
  <path d="M177.295 385.961H11.3062V413.175H177.295V385.961Z" fill="#AAD6A7"/>
  <path d="M129.875 347.089H11.3062V374.302H129.875V347.089Z" fill="#4C3D92"/>
  <path d="M627.85 308.209H11.3062V335.423H627.85V308.209Z" fill="#FDC158"/>
  <path d="M153.585 269.337H11.3062V296.55H153.585V269.337Z" fill="#009BA5"/>
  <path d="M106.156 230.457H11.3062V257.671H106.156V230.457Z" fill="#95DB93"/>
  <path d="M153.585 191.577H11.3062V218.791H153.585V191.577Z" fill="#8484C1"/>
  <path d="M82.4455 152.705H11.3062V179.919H82.4455V152.705Z" fill="#0D4D95"/>
  <path d="M129.875 113.825H11.3062V141.039H129.875V113.825Z" fill="#94D3D3"/>
  <path d="M129.875 74.9443H11.3062V102.158H129.875V74.9443Z" fill="#434343"/>
  <path d="M82.4455 36.0732H11.3062V63.2868H82.4455V36.0732Z" fill="#49AF48"/>
  <path d="M11.3062 604.759V0" stroke="black" stroke-width="0.5" stroke-miterlimit="10"/>
  </g>
  <defs>
  <clipPath id="clip0_834_3731">
  <rect width="737" height="642" fill="white"/>
  </clipPath>
  </defs>
</svg>
