<svg width="716" height="716" viewBox="0 0 716 716" fill="none" xmlns="http://www.w3.org/2000/svg">
<path d="M1 332.33C70.3853 353.72 147.759 325.189 185.609 259.427C223.476 193.63 209.365 112.062 156.149 62.4559C68.519 122.162 8.95367 220.078 1 332.33Z" stroke="white" stroke-width="1.5" stroke-miterlimit="10"/>
<path d="M200.47 36.7254C216.656 107.809 279.989 160.863 355.723 160.863C431.458 160.863 494.791 107.809 510.977 36.7254C464.057 13.8478 411.399 1 355.723 1C300.048 1 247.389 13.8478 200.47 36.7254Z" stroke="white" stroke-width="1.5" stroke-miterlimit="10"/>
<path d="M525.855 259.427C563.688 325.206 641.062 353.72 710.464 332.33C702.511 220.078 642.945 122.161 555.333 62.4556C502.099 112.062 488.006 193.612 525.873 259.427H525.855Z" stroke="white" stroke-width="1.5" stroke-miterlimit="10"/>
<path d="M510.977 679.274C494.791 608.191 431.458 555.137 355.723 555.137C279.989 555.137 216.656 608.191 200.47 679.274C247.389 702.152 300.048 715 355.723 715C411.399 715 464.057 702.152 510.977 679.274Z" stroke="white" stroke-width="1.5" stroke-miterlimit="10"/>
<path d="M710.447 383.652C641.062 362.262 563.688 390.793 525.838 456.555C487.971 522.352 502.082 603.92 555.298 653.526C642.911 593.821 702.476 495.904 710.43 383.652H710.447Z" stroke="white" stroke-width="1.5" stroke-miterlimit="10"/>
<path d="M156.132 653.526C209.365 603.92 223.459 522.37 185.592 456.555C147.759 390.793 70.3853 362.262 1 383.652C8.95367 495.904 68.519 593.821 156.132 653.526Z" stroke="white" stroke-width="1.5" stroke-miterlimit="10"/>
</svg>
