<svg width="55" height="55" viewBox="0 0 55 55" fill="none" xmlns="http://www.w3.org/2000/svg">
<path d="M0.80957 25.7425C6.09451 27.3633 11.99 25.199 14.8805 20.2126C17.7614 15.2167 16.693 9.02897 12.6387 5.26294C5.95141 9.79171 1.4201 17.2189 0.80957 25.7425Z" fill="#2AB24B"/>
<path d="M16.0156 3.29903C17.2462 8.69542 22.0733 12.7189 27.8447 12.7189C33.6162 12.7189 38.4432 8.69542 39.6738 3.29903C36.0965 1.5638 32.0803 0.591309 27.8447 0.591309C23.6091 0.591309 19.593 1.5638 16.0156 3.29903Z" fill="#00AABC"/>
<path d="M40.8085 20.203C43.6895 25.1989 49.5849 27.3632 54.8794 25.7329C54.2689 17.2092 49.7376 9.78206 43.0598 5.2533C39.0055 9.01932 37.9275 15.207 40.818 20.203H40.8085Z" fill="#2AB24B"/>
<path d="M39.6738 52.0667C38.4432 46.6703 33.6162 42.6469 27.8447 42.6469C22.0733 42.6469 17.2462 46.6703 16.0156 52.0667C19.593 53.8019 23.6091 54.7744 27.8447 54.7744C32.0803 54.7744 36.0965 53.8019 39.6738 52.0667Z" fill="#2AB24B"/>
<path d="M54.8799 29.6326C49.5949 28.0118 43.6995 30.176 40.809 35.1624C37.928 40.1584 38.9964 46.3461 43.0508 50.1121C49.7285 45.5834 54.2693 38.1467 54.8703 29.6326H54.8799Z" fill="#00AABC"/>
<path d="M12.6289 50.1217C16.6832 46.3557 17.7612 40.1679 14.8707 35.172C11.9898 30.176 6.09428 28.0118 0.799805 29.6421C1.41034 38.1657 5.94165 45.5929 12.6194 50.1217H12.6289Z" fill="#00AABC"/>
</svg>
