<svg xmlns="http://www.w3.org/2000/svg" viewBox="0 0 206.01 59.99" fill="none">
<path d="M87.1371 47.9975H71.1211V40.9356H75.2836V19.0636H71.1211V12.0017H87.1371V19.0636H82.9746V40.9356H87.1371V47.9975ZM133.632 47.9975H117.775V40.9356H121.842L121.324 27.4556L112.556 42.8356H111.351L102.572 27.4556L102.054 40.9356H106.122V47.9975H90.3699V40.9356H94.469L95.4726 19.0636H91.2573V12.0017H102.065L112.027 30.0418L121.99 12.0017H132.745V19.0636H128.529L129.533 40.9356H133.632V47.9975ZM153.515 48.6203C142.327 48.6203 134.509 40.9672 134.509 29.9996C134.509 19.032 142.633 11.3789 153.409 11.3789C157.286 11.3789 160.878 12.3501 163.53 14.1235C166.108 15.8441 167.576 18.1875 167.576 20.552C167.576 23.5182 165.622 25.6717 162.928 25.6717C160.065 25.6717 158.068 23.7821 158.068 21.0693C158.068 20.6048 158.131 20.1087 158.248 19.6759C157.466 19.2431 155.902 18.652 153.261 18.652C146.986 18.652 142.422 23.4021 142.422 29.9468C142.422 36.4915 147.091 41.3472 153.525 41.3472C157.012 41.3472 160.086 39.9222 162.685 37.1249L163.34 36.4176L168.495 41.78L167.925 42.4134C164.354 46.3719 159.103 48.6308 153.525 48.6308L153.515 48.6203ZM187.427 48.6203C176.81 48.6203 169.098 40.7878 169.098 29.9996C169.098 19.2114 176.915 11.3789 187.681 11.3789C198.446 11.3789 206.01 19.2114 206.01 29.9996C206.01 40.7878 198.193 48.6203 187.427 48.6203ZM187.586 18.652C181.353 18.652 177.011 23.3177 177.011 29.9996C177.011 36.6815 181.458 41.3472 187.586 41.3472C193.713 41.3472 198.108 36.5759 198.108 29.9996C198.108 23.4232 193.682 18.652 187.586 18.652Z" fill="white"></path>
<path d="M0.0107422 27.847C5.86355 29.6415 12.3925 27.2453 15.5936 21.7246C18.7841 16.1933 17.6009 9.34245 13.1109 5.17285C5.70508 10.1869 0.686879 18.41 0.0107422 27.847Z" fill="#2AB24B"></path>
<path d="M16.8506 2.99789C18.2134 8.97255 23.5591 13.4272 29.9507 13.4272C36.3424 13.4272 41.6881 8.97255 43.0509 2.99789C39.0892 1.07671 34.6414 0 29.9507 0C25.26 0 20.8123 1.07671 16.8506 2.99789Z" fill="#00AABC"></path>
<path d="M44.3079 21.7138C47.4984 27.2451 54.0273 29.6414 59.8907 27.8363C59.2146 18.3993 54.1964 10.1762 46.8011 5.16211C42.3111 9.33171 41.1173 16.1825 44.3184 21.7138H44.3079Z" fill="#2AB24B"></path>
<path d="M43.0509 56.9918C41.6881 51.0171 36.3424 46.5625 29.9507 46.5625C23.5591 46.5625 18.2134 51.0171 16.8506 56.9918C20.8123 58.913 25.26 59.9897 29.9507 59.9897C34.6414 59.9897 39.0892 58.913 43.0509 56.9918Z" fill="#2AB24B"></path>
<path d="M59.8908 32.1536C54.038 30.3591 47.509 32.7553 44.3079 38.2761C41.1174 43.8074 42.3007 50.6582 46.7906 54.8278C54.1859 49.8137 59.2147 41.5801 59.8802 32.1536H59.8908Z" fill="#00AABC"></path>
<path d="M13.1002 54.8382C17.5901 50.6686 18.7839 43.8177 15.5828 38.2864C12.3923 32.7551 5.86338 30.3589 0 32.164C0.676137 41.601 5.69434 49.8241 13.0896 54.8382H13.1002Z" fill="#00AABC"></path>
</svg>
